<svg width="31" height="35" viewBox="0 0 31 35" fill="none" xmlns="http://www.w3.org/2000/svg">
<path d="M29.9772 24.1724C29.0712 23.6527 27.7183 23.8259 26.9089 25.1624C26.4741 25.8058 25.9909 26.4122 25.4473 26.9566C20.6396 31.8817 12.7757 31.9188 7.93169 27.0433C3.0394 22.143 2.95484 14.0625 7.72633 9.05091C11.2536 5.35097 16.617 4.21252 21.2677 6.11818L19.9993 7.99909C19.6732 8.48169 19.649 9.07566 19.9027 9.58301C20.1684 10.1151 20.7 10.4492 21.2919 10.4616H21.3039L28.6122 10.177H28.6363C29.1799 10.1399 29.651 9.84287 29.9168 9.39739C30.1463 8.98904 30.1825 8.51881 30.0013 8.08571L27.67 1.01993C27.525 0.524956 27.1264 0.166098 26.6069 0.0423545C26.0271 -0.0937638 25.411 0.104226 25.0003 0.549704L24.9762 0.586828L23.6957 2.48011C21.4851 1.41591 19.1175 0.883813 16.6412 0.883813C11.8093 0.883813 7.37602 2.93796 4.15074 6.66265C1.72271 9.48401 0.248986 13.1097 0.0315514 16.8715C-0.258362 21.8337 1.45696 26.4988 4.87552 30.0007C8.01625 33.2181 12.1958 35 16.6532 35C21.1107 35 25.2782 33.2305 28.431 30.0007C29.2886 29.1222 30.0617 28.1446 30.714 27.0928L30.7382 27.0433C31.3422 25.8058 30.8228 24.655 29.9772 24.1724Z" fill="white"/>
</svg>
