<svg width="45" height="46" viewBox="0 0 45 46" fill="none" xmlns="http://www.w3.org/2000/svg">
<path d="M22.5597 0.736984C10.2644 0.736984 0.272461 10.8021 0.272461 23.2215C0.272461 35.6409 10.2644 45.706 22.5935 45.706C34.9226 45.706 44.9146 35.6409 44.9146 23.2215C44.8807 10.8021 34.8887 0.771103 22.5597 0.736984ZM21.5097 2.88649C21.5097 2.30646 21.9839 1.8288 22.5597 1.8288C23.1355 1.8288 23.6097 2.30646 23.6097 2.88649V7.1855C23.6097 7.76553 23.1355 8.2432 22.5597 8.2432C21.9839 8.2432 21.5097 7.76553 21.5097 7.1855V2.88649ZM6.64023 24.2792H2.37247C1.79666 24.2792 1.32247 23.8015 1.32247 23.2215C1.32247 22.6415 1.79666 22.1638 2.37247 22.1638H6.64023C7.21604 22.1638 7.69024 22.6415 7.69024 23.2215C7.69024 23.8015 7.21604 24.2792 6.64023 24.2792ZM23.6435 43.5565C23.6435 44.1365 23.1693 44.6142 22.5935 44.6142C22.0177 44.6142 21.5435 44.1365 21.5435 43.5565V39.2575C21.5435 38.6775 22.0177 38.1998 22.5935 38.1998C23.1693 38.1998 23.6435 38.6775 23.6435 39.2575V43.5565ZM25.7774 23.2215C25.7774 24.8592 24.5581 26.224 22.9661 26.4287C21.3403 26.6334 19.85 25.5416 19.4774 23.9721C19.1048 22.3685 19.9855 20.7649 21.5097 20.219V12.5081C21.5097 11.9281 21.9839 11.4504 22.5597 11.4504C23.1355 11.4504 23.6097 11.9281 23.6097 12.5081V20.1849C23.7113 20.219 23.8129 20.2531 23.9145 20.3214L35.6 8.55027C36.0065 8.14084 36.6839 8.14084 37.0904 8.55027C37.4968 8.9597 37.4968 9.64208 37.0904 10.0515L25.4387 21.8567C25.6419 22.2662 25.7774 22.7438 25.7774 23.2215ZM42.7807 24.2792H38.513C37.9371 24.2792 37.463 23.8015 37.463 23.2215C37.463 22.6415 37.9371 22.1638 38.513 22.1638H42.7807C43.3565 22.1638 43.8307 22.6415 43.8307 23.2215C43.8307 23.8015 43.3565 24.2792 42.7807 24.2792Z" fill="#660033"/>
</svg>
